<svg width="66" height="66" viewBox="0 0 66 66" fill="none" xmlns="http://www.w3.org/2000/svg">
<rect width="66" height="66" rx="33" fill="#9FDC26"/>
<g clip-path="url(#clip0_37_3803)">
<path d="M33.1557 43.0401C30.7335 43.0401 28.693 42.0014 27.415 40.0697C26.2449 38.3012 25.9587 36.0573 26.7496 34.8496C27.1622 34.2194 27.8301 33.934 28.5926 34.0662C29.7827 34.2746 31.6634 36.1528 32.1856 37.6543C32.5179 38.6084 32.2509 39.1876 31.968 39.5048C31.4918 40.0396 30.8155 40.222 30.1083 40.0019C29.0102 39.6604 28.0226 38.3866 27.8611 37.1019C27.8494 37.0195 27.8542 36.9356 27.8753 36.855C27.8963 36.7745 27.9332 36.699 27.9837 36.6328C28.0342 36.5667 28.0974 36.5112 28.1695 36.4697C28.2416 36.4282 28.3213 36.4015 28.4039 36.391C28.4865 36.3806 28.5703 36.3867 28.6505 36.409C28.7307 36.4312 28.8057 36.4692 28.871 36.5207C28.9364 36.5722 28.9909 36.6362 29.0313 36.709C29.0717 36.7817 29.0973 36.8618 29.1065 36.9445C29.2169 37.8225 29.9191 38.6285 30.4807 38.8026C30.7779 38.8946 30.9252 38.7867 31.0298 38.6687C31.111 38.5783 31.0993 38.3531 30.9997 38.066C30.5762 36.8491 29.0102 35.4137 28.375 35.3024C28.1088 35.2572 27.9372 35.3258 27.7991 35.5368C27.348 36.2256 27.5062 37.933 28.4612 39.3759C29.2069 40.5024 30.9921 42.2969 34.576 41.6524C39.1884 40.8238 39.4312 36.9152 39.2127 34.047L39.2018 33.9039C39.1432 33.1104 38.5498 32.471 37.4384 32.0015C35.5318 31.1971 33.082 31.3168 32.5464 31.6165C32.4476 32.2609 32.5648 32.7405 32.9054 33.0803C33.9081 34.0813 36.5746 33.8344 37.517 33.6553C37.6788 33.6265 37.8454 33.6623 37.9811 33.755C38.1168 33.8477 38.2107 33.9899 38.2427 34.1511C38.2746 34.3123 38.2422 34.4795 38.1522 34.617C38.0622 34.7545 37.9219 34.8512 37.7614 34.8864C36.0231 35.2455 34.9233 35.9167 34.4939 36.8834C33.8646 38.2996 34.8379 39.9877 34.848 40.0053C34.9267 40.1481 34.9466 40.316 34.9037 40.4733C34.8608 40.6306 34.7583 40.7651 34.618 40.8482C34.4777 40.9313 34.3105 40.9565 34.1519 40.9185C33.9934 40.8806 33.8558 40.7824 33.7683 40.6447C33.7139 40.5535 32.4551 38.395 33.3431 36.3821C33.5839 35.8432 33.948 35.3684 34.4061 34.9961C33.5114 34.8697 32.6275 34.5751 32.0199 33.9683C31.5613 33.5105 31.07 32.6702 31.3344 31.2666C31.5546 30.0982 33.7867 30.0974 34.7358 30.1509C37.2601 30.2932 40.2731 31.3369 40.4556 33.8118L40.4665 33.9516C40.8615 39.1348 38.9549 42.142 34.8003 42.8886C34.2353 42.9899 33.6863 43.0401 33.1557 43.0401Z" fill="#262522"/>
<path d="M32.6878 38.149C31.4767 38.149 30.1284 36.6684 29.5434 36.0265C28.5114 34.8941 27.9766 33.6863 28.0753 32.713C28.1314 32.1572 28.3867 31.6986 28.8127 31.3881C29.8597 30.6256 31.4901 31.2215 32.6886 32.8042C33.3364 33.6596 35.3075 36.2625 33.6177 37.7832C33.3658 38.0195 33.0331 38.1503 32.6878 38.149ZM29.8564 32.3154C29.7485 32.311 29.642 32.3412 29.5526 32.4016C29.4672 32.4635 29.3509 32.5765 29.3241 32.8385C29.2764 33.3097 29.5526 34.1726 30.4715 35.1811C32.2953 37.1831 32.774 36.8534 32.7782 36.8492C33.4662 36.2299 32.5656 34.72 31.6876 33.5616C31.0675 32.7414 30.3259 32.3154 29.8564 32.3154Z" fill="#262522"/>
<path d="M31.9716 33.3322C31.8902 33.3323 31.8097 33.3163 31.7346 33.2851C31.6594 33.2539 31.5912 33.2082 31.5338 33.1506L31.5255 33.1422C31.5001 33.1168 31.4769 33.0894 31.456 33.0602C29.9143 30.8757 28.1576 26.3394 28.9133 24.2052C29.1904 23.4251 29.7218 23.128 30.1185 23.015C30.4257 22.928 30.9103 22.8962 31.4702 23.2351C33.2647 24.3207 34.5293 28.354 34.993 30.566C35.0133 30.6479 35.017 30.7331 35.0037 30.8164C34.9904 30.8997 34.9605 30.9795 34.9156 31.051C34.8708 31.1225 34.812 31.1842 34.7428 31.2325C34.6736 31.2807 34.5954 31.3145 34.5128 31.3319C34.4302 31.3492 34.345 31.3497 34.2622 31.3334C34.1794 31.317 34.1008 31.2842 34.031 31.2367C33.9612 31.1893 33.9017 31.1283 33.856 31.0574C33.8104 30.9864 33.7794 30.907 33.7652 30.8238C33.1274 27.784 31.8335 24.9224 30.8207 24.3098C30.6082 24.1817 30.501 24.2119 30.46 24.2236C30.3462 24.2554 30.2014 24.3307 30.0976 24.6245C29.5578 26.1486 30.9773 30.1969 32.4762 32.3278C32.5656 32.449 32.6087 32.5981 32.598 32.7483C32.5873 32.8985 32.5233 33.0399 32.4177 33.1472C32.2993 33.2655 32.1389 33.332 31.9716 33.3322Z" fill="#262522"/>
<path d="M37.5919 32.0132C37.4804 32.0132 37.3709 31.9835 37.2747 31.9271C37.1785 31.8708 37.099 31.7898 37.0444 31.6925C36.9899 31.5953 36.9622 31.4853 36.9643 31.3738C36.9664 31.2623 36.9981 31.1534 37.0563 31.0582C38.623 28.4938 39.578 25.5577 39.1855 24.5149C39.1093 24.3123 39.0064 24.2554 38.9059 24.2245C38.4866 24.0897 37.4371 24.7827 35.1572 30.8925C35.1284 30.9697 35.0846 31.0404 35.0284 31.1006C34.9722 31.1609 34.9047 31.2094 34.8298 31.2436C34.7548 31.2778 34.6738 31.2968 34.5915 31.2997C34.5092 31.3026 34.4271 31.2892 34.35 31.2603C34.2728 31.2315 34.2021 31.1877 34.1418 31.1315C34.0816 31.0754 34.033 31.0079 33.9989 30.9329C33.9647 30.8579 33.9456 30.777 33.9428 30.6947C33.9399 30.6123 33.9533 30.5302 33.9821 30.4531C35.5188 26.3361 37.1944 22.3756 39.2826 23.0251C39.7914 23.1841 40.1647 23.5465 40.3631 24.0713C41.0962 26.0214 39.2231 29.9216 38.1301 31.7119C38.0737 31.804 37.9946 31.8801 37.9004 31.9329C37.8061 31.9856 37.6999 32.0133 37.5919 32.0132Z" fill="#262522"/>
</g>
<path d="M53.7048 27.858L59.5689 30.2086L59.4712 31.6051L52.3151 28.4599L52.3811 27.5171L53.7048 27.858ZM59.8289 26.4931L53.6956 27.9891L52.3363 28.1574L52.4026 27.2096L59.9262 25.1017L59.8289 26.4931Z" fill="#262522"/>
<path d="M51.6491 36.2748L50.6836 35.9936L51.776 32.243L52.7416 32.5242L51.6491 36.2748ZM58.7402 34.6452L51.6757 32.5875L52.0304 31.3696L59.095 33.4273L58.7402 34.6452ZM54.9408 36.702L53.9898 36.425L54.9395 33.1644L55.8905 33.4414L54.9408 36.702ZM57.7552 38.027L56.7848 37.7444L57.8702 34.018L58.8406 34.3007L57.7552 38.027Z" fill="#262522"/>
<path d="M50.8189 43.9161L48.3826 42.5161C48.3149 42.3567 48.2649 42.1395 48.2325 41.8644C48.2014 41.594 48.2254 41.2716 48.3045 40.8974C48.3835 40.5232 48.5582 40.1009 48.8285 39.6306C49.0584 39.2304 49.3363 38.9024 49.662 38.6466C49.9907 38.3925 50.3561 38.2198 50.7584 38.1284C51.1589 38.04 51.5854 38.0383 52.0378 38.1234C52.493 38.2102 52.9631 38.3929 53.448 38.6715L53.8906 38.9259C54.3726 39.2028 54.7676 39.5095 55.0756 39.8458C55.3848 40.1867 55.6054 40.5466 55.7374 40.9256C55.8693 41.3045 55.9102 41.6932 55.8599 42.0918C55.8109 42.4949 55.6688 42.901 55.4338 43.3099C55.1333 43.8328 54.7973 44.2148 54.4256 44.4558C54.0552 44.7015 53.6629 44.8296 53.2487 44.8403C52.8346 44.851 52.416 44.7679 51.9931 44.5909L52.6126 43.513C52.8547 43.6056 53.0928 43.6511 53.3268 43.6495C53.5592 43.6509 53.7787 43.5867 53.9855 43.4568C54.1935 43.3316 54.3822 43.1214 54.5518 42.8264C54.6978 42.5722 54.7781 42.3211 54.7925 42.0729C54.8069 41.8247 54.7575 41.5826 54.6444 41.3466C54.5296 41.1136 54.3564 40.8877 54.1245 40.669C53.8927 40.4503 53.6045 40.2419 53.2598 40.0438L52.8085 39.7845C52.4579 39.583 52.1259 39.4408 51.8122 39.3577C51.4969 39.2775 51.2055 39.2538 50.938 39.2866C50.6688 39.3223 50.4272 39.4147 50.2133 39.5638C50.0023 39.7145 49.823 39.9184 49.6752 40.1755C49.5309 40.4267 49.433 40.6444 49.3815 40.8286C49.333 41.0144 49.3111 41.1709 49.3158 41.2979C49.3218 41.4296 49.3374 41.5376 49.3627 41.6221L50.629 42.3498L51.3919 41.0222L52.2113 41.493L50.8189 43.9161Z" fill="#262522"/>
<path d="M48.9981 50.2578L46.0349 44.1975L46.9734 43.2564L50.2276 50.4134L49.6281 51.0145L48.9981 50.2578ZM43.1834 47.0565L49.2551 50.0002L50.0171 50.6245L49.4139 51.2292L42.2413 48.0011L43.1834 47.0565ZM45.1906 48.9085L44.4785 48.1983L47.305 45.3643L48.017 46.0745L45.1906 48.9085Z" fill="#262522"/>
<path d="M39.6956 58.3669L36.0178 51.9939L37.1165 51.3599L42.6093 54.2757L39.9747 49.7104L41.0734 49.0764L44.7512 55.4494L43.6525 56.0835L38.1459 53.1639L40.7855 57.738L39.6956 58.3669Z" fill="#262522"/>
<path d="M13.9395 37.0663L8.14952 34.5386L8.28962 33.1458L15.3468 36.5069L15.2522 37.4472L13.9395 37.0663ZM7.77677 38.2445L13.9526 36.9356L15.3165 36.8086L15.2214 37.754L7.63718 39.6323L7.77677 38.2445Z" fill="#262522"/>
<path d="M16.2499 28.7158L17.2065 29.0262L16.0006 32.7419L15.044 32.4315L16.2499 28.7158ZM9.11257 30.1293L16.1114 32.4007L15.7198 33.6072L8.72101 31.3358L9.11257 30.1293ZM12.9727 28.1888L13.9149 28.4946L12.8665 31.7248L11.9244 31.419L12.9727 28.1888ZM10.1999 26.7789L11.1613 27.0909L9.96318 30.7826L9.00181 30.4706L10.1999 26.7789Z" fill="#262522"/>
<path d="M17.3118 21.1033L19.7044 22.5767C19.7672 22.7381 19.8106 22.9567 19.8346 23.2326C19.8575 23.5039 19.8237 23.8254 19.7333 24.197C19.6429 24.5687 19.4555 24.9855 19.1711 25.4473C18.929 25.8404 18.6413 26.1598 18.308 26.4055C17.9718 26.6495 17.6012 26.8111 17.1964 26.8902C16.7933 26.9664 16.367 26.9552 15.9175 26.8564C15.465 26.7558 15.0007 26.5589 14.5245 26.2656L14.0899 25.998C13.6165 25.7065 13.231 25.3879 12.9334 25.0424C12.6346 24.6923 12.4251 24.3258 12.3047 23.9431C12.1843 23.5603 12.1553 23.1705 12.2176 22.7737C12.2789 22.3722 12.4332 21.9706 12.6805 21.569C12.9968 21.0555 13.3443 20.6839 13.7231 20.4543C14.1009 20.22 14.4969 20.1038 14.9111 20.1057C15.3254 20.1076 15.7412 20.2034 16.1586 20.3931L15.5067 21.4517C15.2674 21.3519 15.0308 21.2992 14.7969 21.2936C14.5647 21.2851 14.3433 21.3426 14.1327 21.4662C13.921 21.5851 13.7259 21.7894 13.5475 22.0792C13.3938 22.3287 13.306 22.5773 13.284 22.825C13.2621 23.0726 13.3041 23.3161 13.4099 23.5554C13.5176 23.7918 13.6839 24.0228 13.909 24.2485C14.134 24.4741 14.4158 24.6912 14.7543 24.8997L15.1976 25.1726C15.5418 25.3846 15.8694 25.5369 16.1804 25.6295C16.4931 25.7192 16.7837 25.7517 17.0521 25.7271C17.3223 25.6996 17.5665 25.6146 17.7848 25.4721C18.0003 25.3278 18.1858 25.1294 18.3412 24.877C18.4932 24.6302 18.5976 24.4156 18.6546 24.2331C18.7088 24.0488 18.7354 23.8931 18.7346 23.766C18.7326 23.6342 18.7203 23.5257 18.6976 23.4405L17.454 22.6747L16.6511 23.9785L15.8464 23.483L17.3118 21.1033Z" fill="#262522"/>
<path d="M19.3245 14.82L22.1023 20.9676L21.1355 21.8797L18.1003 14.6271L18.7178 14.0445L19.3245 14.82ZM25.0392 18.1965L19.0598 15.0697L18.3172 14.4225L18.9384 13.8364L26.0097 17.2809L25.0392 18.1965ZM23.0893 16.2844L23.7794 17.0159L20.8682 19.7626L20.178 19.0312L23.0893 16.2844Z" fill="#262522"/>
<path d="M28.8692 6.99707L32.3517 13.4789L31.2343 14.0793L25.8326 10.9979L28.3272 15.6411L27.2098 16.2415L23.7273 9.75962L24.8447 9.15927L30.2601 12.2448L27.7607 7.59263L28.8692 6.99707Z" fill="#262522"/>
<defs>
<clipPath id="clip0_37_3803">
<rect width="20.087" height="20.087" fill="white" transform="translate(22.9565 22.9565)"/>
</clipPath>
</defs>
</svg>
